<svg width="24" height="24" viewBox="0 0 24 24" fill="none" xmlns="http://www.w3.org/2000/svg">
<g clip-path="url(#clip0_1984_61687)">
<path d="M22.6873 7.19517C22.6573 7.06655 22.5923 6.94875 22.4995 6.85485C22.4066 6.76095 22.2896 6.69462 22.1613 6.66325C22.033 6.63187 21.8986 6.63667 21.7728 6.6771C21.6471 6.71754 21.5351 6.79203 21.4492 6.89231C20.2873 8.2485 19.1282 8.9266 17.9273 8.86279C16.0682 8.78565 14.7273 6.95898 14.7158 6.94184C14.6188 6.80607 14.4773 6.70853 14.3159 6.66609C14.1545 6.62365 13.9833 6.63899 13.832 6.70945L3.18726 11.6818C2.44889 11.9335 1.80355 12.4019 1.33548 13.0259C0.867407 13.65 0.598357 14.4006 0.563452 15.1799L0.56631 15.1971C0.56631 15.2028 0.5625 15.2085 0.5625 15.2142V18.0714C0.5625 18.4656 0.8825 18.7856 1.27679 18.7856H22.7054C22.8948 18.7856 23.0765 18.7104 23.2104 18.5764C23.3444 18.4425 23.4196 18.2608 23.4196 18.0714V15.2123C23.5461 12.5189 23.3002 9.82095 22.6873 7.19517ZM13.9368 8.23707C14.5777 8.94374 15.9796 10.2066 17.8558 10.2895C19.1406 10.3523 20.3825 9.85041 21.5654 8.81041C21.9101 10.6856 22.0501 12.5914 22.0054 14.4999H17.2873L11.9511 9.16374L13.9368 8.23707ZM12.2873 14.4999L8.54155 10.7552L10.6235 9.78374C10.6583 9.86604 10.7084 9.94101 10.7711 10.0047L15.2663 14.4999H12.2854H12.2873ZM3.7225 13.0047L7.17393 11.3933C7.1844 11.4056 7.18917 11.4218 7.20059 11.4333L10.2673 14.4999H2.14631C2.4025 13.8199 2.95774 13.2714 3.7225 13.0047ZM21.9911 17.3571H1.99107V15.9285H21.9911V17.3571Z" fill="#112333"/>
</g>
<defs>
<clipPath id="clip0_1984_61687">
<rect width="22.8571" height="22.8571" fill="white" transform="translate(0.570312 0.571533)"/>
</clipPath>
</defs>
</svg>
