<?xml version="1.0" encoding="utf-8"?>
<!-- Generator: $$$/GeneralStr/196=Adobe Illustrator 27.6.0, SVG Export Plug-In . SVG Version: 6.00 Build 0)  -->
<svg version="1.1" id="Capa_1" xmlns="http://www.w3.org/2000/svg" xmlns:xlink="http://www.w3.org/1999/xlink" x="0px" y="0px"
	 viewBox="0 0 91 36" style="enable-background:new 0 0 91 36;" xml:space="preserve">
<g id="layer1" transform="translate(374.28571,-360.93362)">
	<path id="path117" d="M-365.7,369.3h-7.5v3.4h2.2V383c0,0,0,6.4,6.8,6.4c0,0,2.9,0.1,4.6-2.3c0,0,1.4,2.3,4.2,2.3
		c0,0,2.6,0.3,4.3-1.3c0,0,3.6-2.4,3.6-9.9c0,0-0.1-5.6-1.4-8.9h-6.2v3.4h1.9c0,0,1,2.8,1,6.3c0,0,0.1,2.1-1,4.4
		c0,0-0.7,1.6-2.1,1.6c0,0-1.3-0.1-1.2-1.6v-14.1h-7.5v3.4h2.2v10.5c0,0,0,1.9-1.9,1.9c0,0-1.9,0-1.9-1.9V369.3"/>
	<path id="path121" d="M-342.9,370.8c0,0,3.1,0,3.1,2.4c0,0,0,2.4-3.1,2.4c0,0-3.1,0-3.1-2.4C-346,373.2-346,370.8-342.9,370.8"/>
	<path id="path125" d="M-346.6,376.1h6.1v8.1c0,0,0,0.9,0.9,0.9c0,0,1.1-0.1,1.7-1.1c0,0,0.9-1.2,0.9-2.2V372c0,0,0.1-3.6,4.9-3.6
		c0,0,4.7-0.2,4.7,4.5c0,0,0.3,2.2-1.5,5.3c0,0-0.8,1.4-1.7,2.8c0,0-0.6,1-1.3,1.9c0,0-0.5,0.5-0.5,1.2c0,0-0.1,1.2,1.2,1.2
		c0,0,1.1,0,1.9-1c0,0,1.3-1.2,1.9-3.1c0,0,1.1-2.3,1.1-5.1h4.5c0,0,0,0.4,0.2,0.9c0,0,0.2,0.7,1.1,1.9c0,0,1.3,1.8,1.6,2.5
		c0,0,1,1.4,1,3.2c0,0,0,1.8-1.3,3c0,0-1.4,1.7-3.4,1.7c0,0-1.4,0-2.7-0.7c0,0-1.5-0.8-2.2-1.8c0,0-0.1-0.1-0.3-0.1l-0.3,0.1
		c0,0-0.9,1-1.9,1.5c0,0-1.3,0.9-3.2,0.9c0,0-1.7,0-2.7-1c0,0-0.9-0.7-1.1-1.6l-0.2-0.1l-0.2,0.1c0,0-0.8,0.9-1.8,1.6c0,0-1.1,1-3,1
		c0,0-1.7,0-2.6-0.9c0,0-1-0.9-1-2.2v-7.1c0,0,0-0.7-1-0.7V376.1z M-325.3,383c-0.2,0.5-0.5,1.1-0.5,1.1l-0.1,0.3
		c0,0.2,0.1,0.3,0.1,0.3c0.2,0.4,0.6,0.6,0.6,0.6c0.3,0.3,0.9,0.3,0.9,0.3c0.7,0,1-0.6,1-0.6c0.4-0.5,0.4-1,0.4-1
		c0-0.3-0.3-0.8-0.3-0.8c-0.2-0.4-0.6-1.2-0.6-1.2c-0.2-0.4-0.5-0.9-0.5-0.9c-0.1-0.3-0.2-0.2-0.2-0.2l-0.2,0.3
		C-325,382.3-325.3,383-325.3,383z M-332.2,378.4l0.2-0.2c0.9-1.3,1.5-3.6,1.5-3.6c0.2-0.7,0.2-1.6,0.2-1.6c0-0.6-0.2-1.1-0.2-1.1
		c-0.3-0.6-0.7-0.6-0.7-0.6c-0.5,0-0.9,0.7-0.9,0.7c-0.4,0.6-0.4,1.7-0.4,1.7v4.4C-332.4,378.6-332.2,378.4-332.2,378.4"/>
	<path id="path129" d="M-317.4,382.6c0,0,0.1-3.2,2-4.8c0,0,1.9-1.9,4.8-1.9c0,0,3,0,4.6,1.7c0,0,0.5,0.5,0.7,0.9c0,0,0.2,0.2,0.3,0
		c0,0,1-1.1,1.6-1.5c0,0,1.3-1.1,2.7-1.1c0,0,1.2,0,1.8,0.6c0,0,0.8,0.6,1.2,1.4c0,0,0.2,0.3,0.5,0c0,0,0.6-0.7,1.4-1.2
		c0,0,1.2-0.9,2.9-0.9c0,0,1.5,0.1,2.2,0.8c0,0,1.3,1,1.3,2.4v7.2c0,0,0,0.9,0.8,0.9h0.8v2.2h-4.2c0,0-2.5,0-2.5-2.8v-5.1
		c0,0,0-1.1-1.3-1.1c0,0-1.5,0-1.5,1.3v7.7h-5.1v-7.9c0,0,0-0.7-0.6-0.7c0,0-0.5,0.1-0.9,0.5c0,0-0.3,0.2-0.1,0.6
		c0,0,0.1,0.5,0.1,1.2c0,0,0,2.9-1.8,4.6c0,0-1.8,1.9-4.8,1.9c0,0-3,0-4.7-1.7C-315.2,387.6-317.4,385.8-317.4,382.6z M-310.7,385.9
		c0,0,0.8,0,1.2-0.6c0,0,0.4-0.7,0.4-2.7v0c-0.1-2-0.4-2.7-0.4-2.7c-0.3-0.7-1.2-0.6-1.2-0.6h0c0,0-0.9,0-1.2,0.6
		c0,0-0.4,0.7-0.4,2.7v0c0.1,2,0.4,2.7,0.4,2.7C-311.6,385.9-310.7,385.9-310.7,385.9L-310.7,385.9"/>
	<path id="path133" d="M-285.6,387c0.3,0,0.6,0.1,0.8,0.3c0.2,0.2,0.3,0.5,0.3,0.8c0,0.3-0.1,0.6-0.3,0.8c-0.2,0.2-0.5,0.3-0.8,0.3
		c-0.3,0-0.6-0.1-0.8-0.3c-0.2-0.2-0.3-0.5-0.3-0.8c0-0.3,0.1-0.6,0.3-0.8C-286.2,387.1-285.9,387-285.6,387z M-284.3,388.1
		c0-0.4-0.1-0.7-0.4-0.9c-0.3-0.2-0.6-0.4-0.9-0.4c-0.4,0-0.7,0.1-0.9,0.4c-0.3,0.3-0.4,0.5-0.4,0.9c0,0.4,0.1,0.7,0.4,0.9
		s0.5,0.4,0.9,0.4s0.7-0.1,0.9-0.4C-284.5,388.7-284.3,388.4-284.3,388.1z M-285.3,387.8l-0.1,0.2l-0.2,0h-0.2v-0.5h0.2l0.3,0.1
		L-285.3,387.8z M-286.1,387.4v1.4h0.2v-0.6h0.2l0.3,0l0.1,0.3v0.1l0,0l0,0l0,0h0.2l0,0l0-0.1v-0.1v-0.1l-0.1-0.2l-0.2-0.1l0.2-0.1
		l0.1-0.3c0-0.2-0.1-0.3-0.2-0.4c-0.1,0-0.2-0.1-0.4-0.1H-286.1"/>
</g>
</svg>
