<svg xmlns="http://www.w3.org/2000/svg" fill="none" viewBox="0 0 232 29" height="29" width="232">
<g clip-path="url(#clip0_315_835)" id="Capa_1">
<g id="Group">
<g id="Group_2">
<path fill="black" d="M90.2789 8.76571C90.0907 9.06849 89.8123 9.3048 89.4511 9.46726C89.0899 9.62973 88.6459 9.71096 88.1417 9.71096H85.3499V5.70103H88.1417C88.8942 5.70103 89.4887 5.87827 89.9176 6.22535C90.3466 6.57243 90.5648 7.05983 90.5648 7.69492C90.5648 8.10847 90.467 8.46294 90.2789 8.7731M93.2212 1.18155C91.9795 0.575999 90.5422 0.265839 88.9018 0.265839H78.8105V23.0774H85.3499V15.1609H88.9018C90.5422 15.1609 91.9795 14.8581 93.2212 14.2452C94.4628 13.6397 95.411 12.7683 96.0732 11.6384C96.7354 10.5085 97.0665 9.19403 97.0665 7.69492C97.0665 6.19581 96.7354 4.91086 96.0732 3.78837C95.411 2.6585 94.4553 1.7871 93.2212 1.18155Z" id="Vector"></path>
<path fill="black" d="M104.945 5.70103H106.872C107.669 5.70103 108.279 5.8635 108.7 6.18843C109.122 6.51336 109.332 6.97121 109.332 7.55461C109.332 8.13801 109.122 8.60325 108.7 8.94295C108.279 9.28265 107.669 9.44511 106.872 9.44511H104.945V5.70103ZM114.923 11.1953C115.578 10.0802 115.902 8.8691 115.902 7.56199C115.902 6.10719 115.578 4.82224 114.923 3.71453C114.269 2.60681 113.358 1.75756 112.184 1.1594C111.01 0.56123 109.648 0.265839 108.098 0.265839H98.3682V23.0774H104.945V14.8951H106.721L110.988 23.0774H118.558L112.982 13.3517C113.787 12.7609 114.434 12.0445 114.923 11.2027" id="Vector_2"></path>
<path fill="black" d="M134.564 14.8434C134.075 15.7886 133.405 16.5345 132.555 17.0736C131.705 17.6201 130.734 17.8859 129.65 17.8859C128.567 17.8859 127.551 17.6127 126.678 17.0736C125.805 16.5271 125.12 15.7886 124.639 14.8434C124.15 13.8981 123.909 12.8421 123.909 11.6679C123.909 10.4938 124.15 9.43774 124.639 8.49249C125.128 7.54724 125.805 6.80137 126.678 6.26229C127.551 5.7232 128.544 5.44996 129.65 5.44996C130.757 5.44996 131.705 5.7232 132.555 6.26229C133.405 6.80876 134.075 7.54724 134.564 8.49249C135.053 9.43774 135.294 10.4938 135.294 11.6679C135.294 12.8421 135.053 13.8981 134.564 14.8434ZM135.896 1.51388C134.03 0.502164 131.946 0 129.643 0C127.34 0 125.218 0.502164 123.352 1.51388C121.478 2.52559 120.011 3.91393 118.935 5.68627C117.859 7.45862 117.324 9.43774 117.324 11.631C117.324 13.8243 117.859 15.8477 118.935 17.6275C120.011 19.4072 121.478 20.8029 123.352 21.8146C125.226 22.8263 127.318 23.3285 129.643 23.3285C131.968 23.3285 134.022 22.8263 135.889 21.8146C137.747 20.8029 139.207 19.4072 140.268 17.6275C141.329 15.8477 141.864 13.8612 141.864 11.6679C141.864 9.47466 141.329 7.48816 140.268 5.70843C139.207 3.9287 137.747 2.53298 135.889 1.52126" id="Vector_3"></path>
<path fill="black" d="M157.441 10.4421C156.38 9.99898 155.026 9.55589 153.393 9.12019C152.377 8.86173 151.579 8.62541 151 8.41864C150.42 8.21187 149.939 7.93124 149.555 7.56939C149.171 7.20754 148.975 6.75707 148.975 6.21798C148.975 5.71581 149.118 5.2875 149.404 4.91087C149.69 4.54163 150.089 4.26101 150.601 4.06162C151.113 3.86962 151.707 3.76623 152.392 3.76623C153.543 3.76623 154.506 4.05424 155.282 4.63025C156.057 5.20626 156.553 5.98167 156.779 6.95646H161.159C160.918 4.76318 160.015 3.04991 158.472 1.82404C156.915 0.612936 154.89 0 152.392 0C150.909 0 149.562 0.265852 148.358 0.797555C147.154 1.32926 146.199 2.08989 145.506 3.07945C144.807 4.06901 144.46 5.18411 144.46 6.41737C144.46 7.91647 144.822 9.11281 145.536 9.99898C146.259 10.8925 147.117 11.5498 148.11 11.9855C149.103 12.4212 150.39 12.8569 151.963 13.2926C153.092 13.5732 153.98 13.8391 154.619 14.0901C155.259 14.3412 155.801 14.6809 156.23 15.1166C156.659 15.5523 156.877 16.1062 156.877 16.7782C156.877 17.3247 156.711 17.8047 156.38 18.2256C156.049 18.6465 155.598 18.9789 155.018 19.2004C154.439 19.4293 153.769 19.5401 152.994 19.5401C152.129 19.5401 151.353 19.385 150.654 19.0675C149.954 18.7499 149.389 18.2847 148.96 17.6644C148.532 17.0441 148.261 16.276 148.148 15.3677H143.73C143.888 17.0441 144.37 18.4767 145.175 19.6656C145.98 20.862 147.064 21.7703 148.411 22.3832C149.758 23.0036 151.286 23.3137 152.994 23.3137C154.702 23.3137 156.079 23.0331 157.343 22.4792C158.608 21.9254 159.593 21.1278 160.316 20.0866C161.038 19.0453 161.392 17.849 161.392 16.505C161.392 14.8508 161.001 13.5363 160.211 12.5615C159.428 11.5867 158.502 10.8704 157.441 10.4273" id="Vector_4"></path>
<path fill="black" d="M176.171 7.11892C175.23 6.63153 174.162 6.38783 172.965 6.38783C171.769 6.38783 170.655 6.62414 169.692 7.08938C168.728 7.55462 167.991 8.13063 167.487 8.80265V0H163.303V23.07H167.487V15.8994C167.487 14.6809 167.66 13.6249 168.021 12.724C168.375 11.823 168.871 11.1436 169.496 10.6858C170.128 10.2279 170.873 9.99898 171.738 9.99898C172.401 9.99898 172.973 10.1319 173.447 10.4051C173.921 10.6784 174.297 11.0624 174.56 11.5646C174.824 12.0667 174.959 12.6723 174.959 13.3886V23.0626H179.173V12.5024C179.173 11.2396 178.91 10.1541 178.376 9.23097C177.841 8.30787 177.104 7.59893 176.171 7.11154" id="Vector_5"></path>
<path fill="black" d="M193.359 17.4207C192.967 18.1665 192.441 18.7573 191.763 19.1782C191.086 19.5992 190.311 19.8133 189.423 19.8133C188.535 19.8133 187.783 19.5992 187.098 19.1782C186.413 18.7573 185.871 18.1665 185.487 17.4207C185.096 16.6674 184.908 15.8108 184.908 14.8286C184.908 13.8464 185.104 13.0193 185.487 12.2735C185.871 11.5276 186.413 10.9442 187.098 10.5307C187.783 10.1171 188.558 9.91035 189.423 9.91035C190.288 9.91035 191.086 10.1171 191.763 10.5307C192.441 10.9442 192.967 11.5276 193.359 12.2735C193.742 13.0267 193.938 13.876 193.938 14.8286C193.938 15.7812 193.742 16.6674 193.359 17.4207ZM193.938 7.46599C192.606 6.74967 191.101 6.38782 189.423 6.38782C187.745 6.38782 186.232 6.74967 184.908 7.46599C183.576 8.18232 182.538 9.17926 181.785 10.4642C181.033 11.7492 180.656 13.204 180.656 14.8286C180.656 16.4533 181.033 17.9154 181.785 19.2078C182.538 20.5001 183.584 21.5118 184.923 22.2355C186.262 22.9666 187.76 23.3285 189.423 23.3285C191.086 23.3285 192.584 22.9666 193.923 22.2355C195.263 21.5118 196.309 20.5001 197.061 19.2078C197.814 17.9154 198.19 16.4533 198.19 14.8286C198.19 13.204 197.814 11.7418 197.061 10.4642C196.309 9.18665 195.27 8.18232 193.938 7.46599Z" id="Vector_6"></path>
<path fill="black" d="M212.465 17.4354C212.081 18.1739 211.54 18.7499 210.855 19.1635C210.17 19.577 209.38 19.7838 208.499 19.7838C207.619 19.7838 206.859 19.577 206.174 19.1635C205.489 18.7499 204.955 18.1665 204.579 17.4207C204.203 16.6674 204.014 15.8108 204.014 14.8286C204.014 13.8464 204.203 13.0193 204.579 12.2735C204.955 11.5276 205.489 10.9442 206.174 10.5307C206.859 10.1171 207.634 9.91035 208.499 9.91035C209.365 9.91035 210.17 10.1171 210.855 10.5307C211.54 10.9442 212.074 11.5276 212.465 12.2735C212.856 13.0267 213.045 13.8834 213.045 14.8655C213.045 15.8477 212.849 16.7043 212.465 17.4428M216.28 10.3904C215.603 9.12018 214.64 8.13801 213.391 7.44384C212.142 6.74967 210.704 6.40259 209.094 6.40259C208.01 6.40259 207.002 6.60936 206.069 7.02291C205.136 7.43646 204.443 7.9977 203.977 8.71402V6.66106H199.763V29.0148H204.014V21.0318C204.458 21.726 205.143 22.2872 206.076 22.7082C207.009 23.1291 208.01 23.3433 209.101 23.3433C210.742 23.3433 212.179 22.9962 213.421 22.302C214.662 21.6078 215.618 20.6257 216.295 19.3555C216.973 18.0853 217.311 16.5936 217.311 14.8729C217.311 13.1523 216.973 11.6605 216.295 10.3904" id="Vector_7"></path>
<path fill="black" d="M12.2058 8.86171C11.9048 9.34172 11.4834 9.71096 10.9265 9.9842C10.3696 10.2574 9.73 10.3904 9.00007 10.3904H4.51508V4.03946H9.00007C10.1063 4.03946 10.9942 4.32746 11.6564 4.90347C12.3187 5.47949 12.6498 6.2475 12.6498 7.20014C12.6498 7.82784 12.4993 8.3817 12.1982 8.86171M13.5076 1.12247C12.3337 0.546459 10.9867 0.258453 9.4591 0.258453H0V23.07H4.51508V14.1714H9.4591C10.9867 14.1714 12.3337 13.8834 13.5076 13.3073C14.6815 12.7313 15.577 11.919 16.1941 10.863C16.8112 9.80696 17.1272 8.58848 17.1272 7.20014C17.1272 5.8118 16.8187 4.62285 16.1941 3.56683C15.577 2.51081 14.674 1.69848 13.5076 1.12247Z" id="Vector_8"></path>
<path fill="black" d="M27.2936 18.0705C26.9625 18.713 26.496 19.2226 25.9015 19.5992C25.307 19.9832 24.6147 20.1678 23.8396 20.1678C23.0645 20.1678 22.4926 19.9979 22.0486 19.6656C21.6046 19.3259 21.3864 18.8902 21.3864 18.3438C21.3864 17.8638 21.4993 17.4797 21.7326 17.1844C21.9658 16.889 22.3195 16.6526 22.7936 16.468C23.2677 16.2834 23.9073 16.1505 24.705 16.0619L27.7903 15.6852V15.8994C27.7903 16.7043 27.6248 17.4281 27.2936 18.0631M28.4901 7.14845C27.3839 6.6389 26.0971 6.38043 24.6373 6.38043C23.3053 6.38043 22.1163 6.6389 21.0478 7.14845C19.9867 7.658 19.1289 8.35955 18.4892 9.25311C17.8496 10.1467 17.4508 11.1288 17.2927 12.2218H21.4466C21.5369 11.6605 21.71 11.1805 21.9809 10.7891C22.2443 10.3977 22.6055 10.1024 23.057 9.89558C23.5085 9.68881 24.0353 9.58542 24.6373 9.58542C25.2769 9.58542 25.8338 9.69619 26.3154 9.91035C26.7895 10.1245 27.1582 10.4494 27.414 10.8704C27.6699 11.2913 27.7978 11.7861 27.7978 12.3547V12.7166L24.547 13.0415C22.8388 13.2187 21.4466 13.5289 20.363 13.972C19.2794 14.4151 18.4817 15.0132 17.97 15.7665C17.4583 16.5123 17.21 17.4354 17.21 18.521C17.21 19.4515 17.4508 20.286 17.9399 21.017C18.429 21.7481 19.0988 22.3168 19.9642 22.7303C20.8296 23.1439 21.8454 23.3506 23.0194 23.3506C24.0804 23.3506 25.0587 23.1291 25.9391 22.6786C26.8271 22.2355 27.4441 21.6743 27.7978 21.0023V23.0848H31.9818V12.916C31.9818 11.5276 31.6808 10.3461 31.0713 9.37865C30.4617 8.41124 29.6039 7.67277 28.4977 7.16322" id="Vector_9"></path>
<path fill="black" d="M46.1892 17.4354C45.8129 18.1739 45.2786 18.7573 44.5938 19.1783C43.909 19.5992 43.134 19.8133 42.2686 19.8133C41.4032 19.8133 40.6055 19.6066 39.9282 19.193C39.251 18.7795 38.7167 18.1961 38.3179 17.4354C37.919 16.6748 37.7234 15.8182 37.7234 14.8582C37.7234 13.8981 37.919 13.0194 38.3179 12.2661C38.7167 11.5202 39.251 10.9368 39.9282 10.5233C40.6055 10.1098 41.3806 9.90298 42.2686 9.90298C43.1565 9.90298 43.909 10.1098 44.5938 10.5233C45.2786 10.9368 45.8129 11.5202 46.1892 12.2809C46.5654 13.0415 46.7535 13.8981 46.7535 14.8582C46.7535 15.8182 46.5654 16.697 46.1892 17.4354ZM46.7535 8.69926C46.287 7.98294 45.5947 7.41431 44.6766 7.00815C43.7585 6.5946 42.7577 6.38783 41.6741 6.38783C40.0336 6.38783 38.6038 6.73491 37.3772 7.42908C36.1506 8.12325 35.1874 9.10542 34.5026 10.3756C33.8178 11.6458 33.4717 13.1375 33.4717 14.8582C33.4717 16.5788 33.8178 18.0705 34.5026 19.3407C35.1874 20.6109 36.1431 21.5931 37.3772 22.2872C38.6038 22.9814 40.0411 23.3285 41.6741 23.3285C42.7577 23.3285 43.7585 23.1143 44.6766 22.6934C45.5947 22.2725 46.287 21.7112 46.7535 21.0171V23.07H51.0053V0H46.7535V8.69926Z" id="Vector_10"></path>
<path fill="black" d="M56.9356 12.6723C57.0109 12.3916 57.0937 12.1184 57.199 11.8747C57.5301 11.1067 58.0193 10.5307 58.6589 10.1467C59.2985 9.76266 60.0887 9.57804 61.0143 9.57804C61.7216 9.57804 62.3613 9.71096 62.9257 9.96943C63.49 10.2279 63.9265 10.5971 64.235 11.0624C64.5436 11.5276 64.7091 12.0667 64.7317 12.6723H56.9356ZM65.6648 7.62107C64.3554 6.79398 62.8128 6.38043 61.0143 6.38043C59.3964 6.38043 57.9515 6.74229 56.6647 7.47338C55.3779 8.20447 54.3846 9.2088 53.6773 10.4864C52.9699 11.7713 52.6162 13.2261 52.6162 14.8508C52.6162 16.4754 52.9699 17.945 53.6773 19.2373C54.3846 20.5297 55.393 21.534 56.7024 22.2503C58.0042 22.9666 59.5168 23.3285 61.2174 23.3285C62.6096 23.3285 63.8512 23.0922 64.9349 22.6269C66.0185 22.1617 66.9064 21.4971 67.5912 20.6404C68.276 19.7838 68.7351 18.8016 68.9533 17.6939H64.7016C64.521 18.3659 64.1221 18.905 63.5051 19.3038C62.888 19.7026 62.1129 19.9093 61.1798 19.9093C60.2467 19.9093 59.5168 19.7099 58.8395 19.3038C58.1622 18.905 57.6355 18.3142 57.2592 17.5462C57.0034 17.0219 56.8378 16.409 56.755 15.7369H69.0436C69.307 14.0237 69.1339 12.4433 68.5319 11.0107C67.9223 9.57804 66.9667 8.44817 65.6573 7.62107" id="Vector_11"></path>
</g>
<path fill="black" d="M75.0705 0H70.8564V23.07H75.0705V0Z" id="Vector_12"></path>
</g>
<path fill="#2940E7" d="M232 2.45175L231.466 1.54343C229.231 2.81361 226.627 3.5447 223.858 3.5447C221.089 3.5447 218.493 2.81361 216.25 1.54343L215.716 2.45175C220.261 5.03642 223.316 9.85868 223.316 15.3825H224.385C224.385 9.85868 227.44 5.03642 231.985 2.45175H232Z" id="Vector_13"></path>
</g>
<defs>
<clipPath id="clip0_315_835">
<rect fill="white" height="29" width="232"></rect>
</clipPath>
</defs>
</svg>
