<svg width="24" height="24" viewBox="0 0 24 24" fill="none" xmlns="http://www.w3.org/2000/svg">
<g clip-path="url(#clip0_1984_61856)">
<path d="M23.4274 9.42859C22.2845 2.57145 16.6655 2.00002 15.8084 1.90479H8.28455C7.33217 1.90479 1.71312 2.47621 0.570261 9.42859C0.475023 10.2857 0.665499 11.1429 1.23693 11.7143C1.80836 12.381 2.57026 12.7619 3.4274 12.7619H4.6655V19.2381C4.6655 20.8572 5.99883 22.0953 7.52264 22.0953H16.1893C17.8084 22.0953 19.0464 20.7619 19.0464 19.2381V12.7619H20.2845C21.1417 12.7619 21.9988 12.381 22.475 11.7143C23.3322 11.0476 23.5226 10.1905 23.4274 9.42859ZM14.856 3.33336C14.5703 4.66669 13.3322 5.61907 11.9988 5.61907C10.5703 5.61907 9.4274 4.66669 9.14169 3.33336H14.856ZM21.6179 10.7619C21.3322 11.0476 20.9512 11.2381 20.475 11.2381H19.2369V9.14288C19.2369 8.76193 18.9512 8.38098 18.475 8.38098C18.0941 8.38098 17.7131 8.66669 17.7131 9.14288V19.3334C17.7131 20.0953 17.0465 20.7619 16.2845 20.7619H7.61788C6.85597 20.7619 6.18931 20.0953 6.18931 19.3334V9.14288C6.18931 8.76193 5.90359 8.38098 5.4274 8.38098C5.04645 8.38098 4.76074 8.76193 4.76074 9.14288V11.3334H3.52264C3.04645 11.3334 2.6655 11.1429 2.37978 10.8572C2.09407 10.5715 1.99883 10.0953 2.09407 9.71431C2.85598 4.76193 6.18931 3.61907 7.61788 3.42859C7.99883 5.42859 9.80836 7.04764 11.9988 7.04764C14.1893 7.04764 15.9988 5.52383 16.3798 3.42859C17.9036 3.71431 21.1417 4.76193 21.9988 9.61907C21.9988 10 21.9036 10.4762 21.6179 10.7619Z" fill="#112333"/>
</g>
<defs>
<clipPath id="clip0_1984_61856">
<rect width="22.8571" height="22.8571" fill="white" transform="translate(0.570312 0.571533)"/>
</clipPath>
</defs>
</svg>
