<svg width="28" height="28" viewBox="0 0 28 28" fill="none" xmlns="http://www.w3.org/2000/svg">
<g clip-path="url(#clip0_2988_232298)">
<path d="M23.3333 12L21.5 4.5C21.4167 4.16667 21.1667 4 20.8333 4H7.08333C6.83333 4 6.58333 4.16667 6.5 4.5L4.66667 12V12.0833L4 23.3333C4 23.75 4.25 24 4.66667 24H12.3333C12.6667 24 12.9167 23.8333 12.9167 23.5L14 18.3333L15.0833 23.5C15.1667 23.75 15.4167 24 15.6667 24H23.3333C23.6667 24 23.9167 23.6667 23.9167 23.3333L23.3333 12ZM21.4167 9.5C19.5 9 18 7.33333 17.75 5.25H20.3333L21.4167 9.5ZM7.58333 5.25H10.1667C9.91667 7.25 8.5 8.91667 6.5 9.5L7.58333 5.25ZM16.1667 22.75L14.5833 15.1667C14.5 14.9167 14.3333 14.75 14.0833 14.6667C13.75 14.5833 13.4167 14.8333 13.3333 15.1667L11.75 22.75H5.33333L5.91667 12.25L6.25 10.8333C7.25 10.5833 11.0833 9.5 11.5 5.25H16.5C16.8333 9.5 20.6667 10.5833 21.75 10.8333L22.0833 12.1667L22.6667 22.75H16.1667Z" fill="#112333"/>
</g>
<defs>
<clipPath id="clip0_2988_232298">
<rect width="20" height="20" fill="white" transform="translate(4 4)"/>
</clipPath>
</defs>
</svg>
