<?xml version="1.0" encoding="utf-8"?>
<!-- Generator: $$$/GeneralStr/196=Adobe Illustrator 27.6.0, SVG Export Plug-In . SVG Version: 6.00 Build 0)  -->
<svg version="1.1" id="Capa_1" xmlns="http://www.w3.org/2000/svg" xmlns:xlink="http://www.w3.org/1999/xlink" x="0px" y="0px"
	 viewBox="0 0 91 36" style="enable-background:new 0 0 91 36;" xml:space="preserve">
<g>
	<path d="M15.1,12.4c0,0.2-0.1,0.4-0.1,0.7c0,0.1,0,0.1,0,0.2c-0.2,0.7-0.2,1.4-0.2,2.1C14,25.5,21.7,34.2,31.9,34.9
		c9,0.6,17.1-5.5,19.1-14.3c0.1-0.3,0.1-0.5,0.2-0.8c-2.7,9.8-12.8,15.6-22.6,12.9c-6.4-1.7-11.3-6.7-13-13.1
		c2.1,4.6,7.3,6.8,12.1,5.1c-4.9,1.6-10.1-1-11.7-5.9c-1.1-3.2-0.3-6.7,1.9-9.2c0,0.1,0,0.2,0,0.4c0,0.4,0.1,0.8,0.2,1.1
		c0,0.1,0.1,0.2,0.1,0.3c0,0.1,0.1,0.2,0.2,0.3c0.1,0.2,0.3,0.4,0.4,0.6c0.3,0.3,0.7,0.5,1.1,0.7c0.7,0.2,1.4,0.4,2.2,0.4
		c1.3,0,2.7-0.1,4-0.2c0.3,0,0.6,0,1-0.1c0.3,0,0.6,0,0.9,0c0.6,0,1.2,0.2,1.7,0.4c1.1,0.4,2.1,1.3,2.5,2.5c0.4,1.2,0.4,2.5,0,3.7
		c-0.5,1.2-1.1,2.3-2,3.3c1-0.9,1.7-2,2.3-3.2c0.6-1.2,0.7-2.7,0.3-4c-0.5-1.3-1.4-2.4-2.7-3.1c-0.6-0.3-1.3-0.5-2-0.6
		c-0.3-0.1-0.7-0.1-1-0.1c-0.3,0-0.7,0-1,0c-1.3,0-2.6,0-3.8-0.1c-0.6,0-1.1-0.2-1.7-0.4c-0.4-0.1-0.7-0.5-0.8-0.8
		c-0.1-0.5-0.1-1,0-1.5c0.1-0.5,0.4-0.9,0.7-1.2c0.4-0.4,0.8-0.7,1.3-0.9c0.2-0.1,0.4-0.2,0.6-0.2c5-1.3,10,1.7,11.2,6.7
		c0.8,3.1-0.1,6.4-2.3,8.7c1.1-1.1,1.9-2.5,2.4-4.1l0-0.1c2.1-6.9-1.8-14.3-8.7-16.4S10.9,3.5,8.8,10.4c-0.1,0.2-0.1,0.4-0.2,0.6
		c2.4-6.8,9.9-10.4,16.8-8c4.3,1.5,7.4,5.1,8.4,9.6c-1.6-5.2-7-8.1-12.2-6.5c-3,0.9-5.4,3.3-6.4,6.3"/>
	<path d="M39.8,18.6c-0.8,0-1.5-0.1-2.2-0.5c-0.7-0.4-1.2-1-1.3-1.8l-0.1-0.2h0.5l0,0.2c0.3,1.2,1.3,1.8,3,1.8
		c0.4,0,0.9-0.1,1.3-0.2c0.4-0.1,0.7-0.5,0.7-0.9c0-0.1,0-0.2,0-0.2c-0.1-0.3-0.2-0.6-0.5-0.8c-0.3-0.2-0.5-0.3-0.9-0.4
		c-0.2,0-0.7-0.2-1.5-0.3c-0.6-0.1-1.3-0.3-1.8-0.5c-0.6-0.2-1.1-0.7-1.2-1.4c0-0.1,0-0.3,0-0.4c0-0.9,0.8-1.3,2.4-1.3
		c1.9,0,3,0.7,3.3,2.2h-0.5c-0.1-0.6-0.5-1.1-1-1.4c-0.5-0.2-1.1-0.4-1.7-0.3c-1.3,0-1.9,0.3-1.9,1c0,0.1,0,0.2,0,0.3
		c0.1,0.4,0.4,0.8,0.8,0.9c0.5,0.2,1,0.3,1.5,0.4c0.9,0.1,1.8,0.3,2.6,0.7c0.5,0.3,0.9,0.8,1,1.4c0,0.1,0,0.2,0,0.3
		c0,0.5-0.4,1-0.9,1.2C40.8,18.6,40.3,18.6,39.8,18.6z"/>
	<path d="M47.2,18.6l-0.7-3.3c-0.1-0.4-0.3-0.8-0.7-1c-0.3-0.2-0.8-0.4-1.2-0.3c-0.4,0-0.8,0.1-1.1,0.4c-0.3,0.3-0.4,0.6-0.4,1
		c0,0.1,0,0.3,0,0.4l0.6,2.8h-0.5l-1.4-6.8h0.5l0.5,2.5c0.3-0.5,0.8-0.8,1.6-0.8c0.6,0,1.1,0.1,1.6,0.4c0.5,0.3,0.8,0.8,0.9,1.3
		l0.7,3.3L47.2,18.6z"/>
	<path d="M50.9,18.7c-0.7,0-1.5-0.2-2-0.7c-0.6-0.5-1-1.1-1.1-1.9c0-0.2-0.1-0.4-0.1-0.7c0-0.5,0.2-1.1,0.6-1.4
		c0.4-0.3,1-0.5,1.5-0.4c0.7,0,1.5,0.2,2,0.7c0.6,0.5,1,1.1,1.1,1.9c0.1,0.2,0.1,0.4,0.1,0.7c0,0.5-0.2,1.1-0.6,1.4
		C52,18.5,51.5,18.7,50.9,18.7z M51.6,14.6c-0.2-0.2-0.5-0.4-0.8-0.5C50.5,14,50.2,14,50,14c-0.4,0-0.9,0.1-1.2,0.4
		c-0.3,0.3-0.5,0.7-0.5,1.2c0,0.2,0,0.4,0.1,0.6c0.1,0.6,0.4,1.1,0.9,1.5c0.5,0.4,1,0.6,1.6,0.6c0.4,0,0.9-0.1,1.2-0.4
		c0.3-0.3,0.5-0.7,0.5-1.1c0-0.2,0-0.4-0.1-0.6C52.4,15.5,52.1,15,51.6,14.6z"/>
	<path d="M56.4,18.7c-0.7,0-1.4-0.2-2-0.7c-0.6-0.5-1-1.1-1.1-1.8c-0.1-0.2-0.1-0.5-0.1-0.7c0-0.6,0.2-1.1,0.6-1.5
		c0.5-0.3,1-0.5,1.6-0.5c1.1-0.1,2.1,0.5,2.5,1.5l-0.4,0.2c-0.3-0.8-1.1-1.3-2-1.3c-0.5,0-0.9,0.1-1.3,0.4c-0.3,0.3-0.5,0.7-0.5,1.2
		c0,0.2,0,0.4,0.1,0.6c0.1,0.6,0.4,1.1,0.9,1.5c0.5,0.4,1,0.6,1.6,0.5c1.1,0,1.6-0.5,1.6-1.4l0.5,0.2C58.4,18.1,57.7,18.7,56.4,18.7
		z"/>
	<path d="M63.6,18.6l-3.2-2.7l-1,0.8l0.4,1.9h-0.5l-1.4-6.8h0.5l0.9,4.3l3-2.5h0.9l-2.4,1.9l3.5,3L63.6,18.6z"/>
	<path d="M70.7,17.7c-0.3,0.4-0.7,0.7-1.2,0.8c-0.5,0.1-1,0.1-1.4,0.1c-1.1,0-2.1-0.3-2.9-0.9c-0.9-0.6-1.4-1.5-1.6-2.6
		c-0.1-0.3-0.1-0.6-0.1-0.9c0-0.8,0.3-1.5,1-2c0.7-0.4,1.4-0.6,2.2-0.6c1,0,2.1,0.3,2.9,0.8c0.9,0.6,1.4,1.5,1.6,2.5
		c0.1,0.3,0.1,0.6,0.1,0.9C71.3,16.6,71.1,17.2,70.7,17.7z M69.1,13.3c-0.3-0.3-0.7-0.4-1.1-0.6c-0.4-0.1-0.8-0.1-1.1-0.1
		c-0.6,0-1.2,0.1-1.7,0.4c-0.5,0.3-0.8,0.9-0.7,1.4c0,0.2,0,0.5,0.1,0.7c0.1,0.8,0.6,1.5,1.2,1.9c0.7,0.5,1.4,0.7,2.2,0.7
		c0.6,0,1.2-0.1,1.7-0.4c0.5-0.3,0.8-0.9,0.7-1.5c0-0.2,0-0.5-0.1-0.7C70.1,14.4,69.7,13.7,69.1,13.3z"/>
	<path d="M76,18.6l-0.1-0.3c-0.4,0.3-1,0.5-1.5,0.4c-0.6,0-1.2-0.1-1.7-0.4c-0.5-0.3-0.9-0.8-1-1.4L71,13.7h1l0.7,3.1
		c0.1,0.7,0.7,1,1.6,1s1.3-0.4,1.3-1.1c0-0.2,0-0.3-0.1-0.4l-0.6-2.6h1l1,4.9L76,18.6z"/>
	<path d="M78.1,14.6l0.8,3.9h-1l-0.9-3.9h-1l-0.2-0.9h1l-0.3-1.4h1l0.3,1.4h1l0.2,0.9L78.1,14.6z"/>
	<path d="M80,17l-1.1-5.3h1l1.1,5.3H80z M80.8,18.6c-0.3,0-0.5-0.2-0.6-0.4l-0.1-0.6c0,0,0-0.1,0-0.1c0-0.1,0-0.2,0.1-0.2
		c0.1-0.1,0.2-0.1,0.3-0.1c0.3,0,0.5,0.2,0.6,0.4l0.1,0.6c0,0,0,0.1,0,0.1C81.2,18.4,81,18.6,80.8,18.6L80.8,18.6z"/>
	<path d="M60.9,21.2h-0.7l0.2,0.9h-0.1l-0.4-2h0.9c0.5,0,0.8,0.2,0.8,0.6c0,0,0,0.1,0,0.1c0,0.1-0.1,0.3-0.2,0.3
		C61.2,21.1,61.1,21.2,60.9,21.2z M60.8,20.2H60l0.2,0.8H61c0.1,0,0.2,0,0.3-0.1c0.1,0,0.2-0.1,0.2-0.3c0,0,0-0.1,0-0.1
		C61.4,20.3,61.1,20.2,60.8,20.2L60.8,20.2z"/>
	<path d="M63.2,22l-0.1-0.3c-0.1,0.2-0.3,0.3-0.5,0.3c-0.2,0-0.4-0.1-0.6-0.2c-0.2-0.2-0.3-0.5-0.3-0.7c0-0.2,0.1-0.3,0.2-0.4
		c0.1-0.1,0.3-0.2,0.4-0.1c0.2,0,0.5,0.1,0.6,0.3L63,20.6h0.1l0.3,1.4H63.2z M62.4,20.7c-0.1,0-0.3,0.1-0.4,0.2
		c0,0.1-0.1,0.2-0.1,0.3c0,0.1,0,0.1,0,0.2c0,0.2,0.1,0.3,0.2,0.4c0.1,0.1,0.3,0.2,0.4,0.2c0.1,0,0.3,0,0.3-0.1
		c0.1-0.1,0.1-0.2,0.1-0.3c0-0.1,0-0.1,0-0.2c0-0.2-0.1-0.3-0.2-0.4C62.7,20.8,62.5,20.7,62.4,20.7z"/>
	<path d="M64.9,22l-0.1-0.3c-0.1,0.2-0.3,0.3-0.5,0.3c-0.2,0-0.4-0.1-0.6-0.2c-0.2-0.1-0.3-0.3-0.3-0.5c0-0.1,0-0.1,0-0.2
		c0-0.1,0-0.2,0.1-0.3c0.1-0.2,0.3-0.2,0.5-0.2c0.2,0,0.5,0.1,0.6,0.3l-0.2-0.8h0.1l0.4,2L64.9,22z M64,20.7c-0.2,0-0.3,0.1-0.4,0.2
		c0,0.1-0.1,0.2-0.1,0.3c0,0.1,0,0.1,0,0.2c0,0.2,0.1,0.3,0.2,0.4c0.1,0.1,0.3,0.2,0.4,0.2c0.2,0,0.3-0.1,0.4-0.2
		c0.1-0.1,0.1-0.2,0.1-0.3c0-0.1,0-0.1,0-0.2c0-0.2-0.1-0.3-0.2-0.4C64.3,20.7,64.2,20.7,64,20.7L64,20.7z"/>
	<path d="M65.2,21.4c0.1,0.3,0.4,0.6,0.7,0.5c0.3,0,0.4-0.1,0.5-0.3h0.2c0,0.3-0.2,0.5-0.6,0.5c-0.2,0-0.4-0.1-0.6-0.2
		c-0.2-0.1-0.3-0.3-0.3-0.5c0-0.1,0-0.1,0-0.2c0-0.2,0.1-0.3,0.2-0.4c0.1-0.1,0.3-0.2,0.4-0.1c0.2,0,0.4,0.1,0.6,0.2
		c0.2,0.1,0.3,0.3,0.3,0.5l0,0.1L65.2,21.4z M65.6,20.7c-0.1,0-0.2,0-0.3,0.1c-0.1,0.1-0.1,0.2-0.1,0.3c0,0,0,0.1,0,0.1h1.2
		c0-0.2-0.1-0.3-0.2-0.4C65.9,20.7,65.8,20.7,65.6,20.7L65.6,20.7z"/>
	<path d="M66.8,22l-0.4-2h0.1l0.4,2H66.8z"/>
	<path d="M68.9,22h-0.7l-0.4-2h0.8c0.3,0,0.6,0.1,0.8,0.3c0.3,0.3,0.4,0.6,0.4,1c0,0.2-0.1,0.4-0.3,0.6C69.3,22,69.1,22,68.9,22z
		 M68.6,20.2H68l0.4,1.7h0.5c0.2,0,0.4,0,0.5-0.1c0.2-0.1,0.2-0.3,0.2-0.5c0-0.1,0-0.2,0-0.2C69.6,20.5,69.1,20.2,68.6,20.2z"/>
	<path d="M71.4,22l-0.1-0.3C71.2,22,71,22.1,70.8,22c-0.2,0-0.4-0.1-0.6-0.2c-0.2-0.2-0.3-0.5-0.3-0.7c0-0.2,0.1-0.3,0.2-0.4
		c0.1-0.1,0.3-0.2,0.4-0.1c0.2,0,0.5,0.1,0.6,0.3l-0.1-0.3h0.1l0.3,1.4L71.4,22z M70.5,20.7c-0.1,0-0.3,0.1-0.4,0.2
		c0,0.1-0.1,0.2-0.1,0.3c0,0.1,0,0.1,0,0.2c0,0.2,0.1,0.3,0.2,0.4c0.1,0.1,0.3,0.2,0.4,0.2c0.1,0,0.3,0,0.3-0.1
		c0.1-0.1,0.1-0.2,0.1-0.3c0-0.1,0-0.1,0-0.2c0-0.2-0.1-0.3-0.2-0.4C70.9,20.8,70.7,20.7,70.5,20.7L70.5,20.7z"/>
	<path d="M73.8,22l-0.2-0.9c0-0.2-0.2-0.4-0.4-0.4c-0.1,0-0.2,0-0.3,0.1c-0.1,0.1-0.1,0.1-0.1,0.2c0,0,0,0.1,0,0.1l0.2,0.9h-0.1
		l-0.2-0.9c0-0.2-0.2-0.4-0.4-0.4c-0.1,0-0.2,0.1-0.3,0.2c0,0.1,0,0.1,0,0.2c0,0,0,0.1,0,0.1L72,22h-0.1l-0.3-1.4h0.1l0,0.2
		c0.1-0.2,0.3-0.2,0.4-0.2c0.2,0,0.4,0.1,0.5,0.2c0.1-0.2,0.3-0.3,0.4-0.2c0.3,0,0.6,0.2,0.6,0.5l0.2,0.9L73.8,22z"/>
	<path d="M74.9,22.1c-0.2,0-0.5-0.1-0.6-0.3l0.2,0.7h-0.1l-0.4-1.9H74l0.1,0.2c0.1-0.2,0.3-0.3,0.5-0.3c0.2,0,0.4,0.1,0.6,0.2
		c0.2,0.1,0.3,0.3,0.3,0.5c0,0.1,0,0.1,0,0.2c0,0.1,0,0.3-0.2,0.4C75.2,22,75,22.1,74.9,22.1z M74.6,20.7c-0.1,0-0.2,0-0.3,0.1
		c-0.1,0.1-0.1,0.2-0.1,0.3c0,0.1,0,0.1,0,0.2c0,0.2,0.1,0.3,0.2,0.4c0.1,0.1,0.3,0.2,0.5,0.2c0.1,0,0.2,0,0.3-0.1
		c0.1-0.1,0.1-0.2,0.1-0.3c0-0.1,0-0.1,0-0.2c0-0.2-0.1-0.3-0.2-0.4C75,20.8,74.8,20.7,74.6,20.7L74.6,20.7z"/>
	<path d="M75.7,21.4c0.1,0.3,0.4,0.6,0.7,0.5c0.3,0,0.4-0.1,0.5-0.3H77c0,0.3-0.2,0.5-0.6,0.5c-0.2,0-0.4-0.1-0.6-0.2
		c-0.2-0.1-0.3-0.3-0.3-0.5c0-0.1,0-0.1,0-0.2c0-0.2,0.1-0.3,0.2-0.4c0.1-0.1,0.3-0.2,0.4-0.1c0.2,0,0.4,0.1,0.6,0.2
		c0.2,0.1,0.3,0.3,0.3,0.5l0,0.1L75.7,21.4z M76.2,20.7c-0.1,0-0.2,0-0.3,0.1c-0.1,0.1-0.1,0.2-0.1,0.3c0,0,0,0.1,0,0.1h1.2
		c0-0.2-0.1-0.3-0.2-0.4C76.5,20.7,76.3,20.7,76.2,20.7L76.2,20.7z"/>
	<path d="M78.4,22l-0.2-0.9c0-0.3-0.3-0.4-0.5-0.4c-0.1,0-0.2,0-0.3,0.1c-0.1,0.1-0.1,0.2-0.1,0.3c0,0,0,0.1,0,0.1l0.2,0.8h-0.1
		L77,20.6h0.1l0,0.2c0.1-0.2,0.3-0.2,0.5-0.2c0.2,0,0.3,0,0.4,0.1c0.1,0.1,0.2,0.2,0.3,0.4l0.2,1H78.4z"/>
	<path d="M78.7,21.4c0.1,0.3,0.4,0.6,0.7,0.5c0.3,0,0.4-0.1,0.5-0.3h0.2c0,0.3-0.2,0.5-0.6,0.5c-0.2,0-0.4-0.1-0.6-0.2
		c-0.2-0.1-0.3-0.3-0.3-0.5c0-0.1,0-0.1,0-0.2c0-0.2,0.1-0.3,0.2-0.4c0.1-0.1,0.3-0.2,0.4-0.1c0.2,0,0.4,0.1,0.6,0.2
		c0.2,0.1,0.3,0.3,0.3,0.5l0,0.1L78.7,21.4z M79.2,20.7c-0.1,0-0.2,0-0.3,0.1c-0.1,0.1-0.1,0.2-0.1,0.3c0,0,0,0.1,0,0.1h1.2
		c0-0.2-0.1-0.3-0.2-0.4C79.5,20.7,79.3,20.7,79.2,20.7L79.2,20.7z"/>
	<path d="M80.4,20.9c0,0.1-0.1,0.2,0,0.3c0,0.1,0,0.2,0,0.3l0.1,0.6h-0.1L80,20.6h0.1l0.1,0.2c0,0,0-0.1,0.1-0.1
		c0.1-0.1,0.3-0.2,0.5-0.2l0,0.1C80.6,20.7,80.5,20.8,80.4,20.9z"/>
	<path d="M81.9,22c-0.4,0-0.7-0.2-0.8-0.6h0.2c0,0.1,0.1,0.3,0.2,0.3c0.1,0.1,0.3,0.1,0.4,0.1c0.2,0,0.4-0.1,0.4-0.2c0,0,0,0,0-0.1
		c0-0.1-0.1-0.2-0.3-0.2l-0.3,0c-0.3,0-0.5-0.2-0.5-0.4c0,0,0-0.1,0-0.1c0-0.1,0.1-0.2,0.2-0.3c0.1-0.1,0.2-0.1,0.3-0.1
		c0.3-0.1,0.7,0.2,0.7,0.5h-0.2c0-0.1-0.1-0.2-0.2-0.3c-0.1-0.1-0.2-0.1-0.3-0.1c-0.1,0-0.2,0-0.2,0c-0.1,0-0.1,0.1-0.1,0.2
		c0,0,0,0,0,0.1c0,0.1,0.1,0.2,0.3,0.2l0.3,0.1c0.3,0,0.5,0.2,0.5,0.4c0,0,0,0.1,0,0.1c0,0.1-0.1,0.2-0.2,0.3C82.1,22,82,22,81.9,22
		z"/>
</g>
</svg>
